<svg width="24" height="24" viewBox="0 0 24 24" fill="none" xmlns="http://www.w3.org/2000/svg">
<path d="M8.117 16.539C8.335 16.539 8.51767 16.465 8.665 16.317C8.81167 16.1697 8.885 15.9867 8.885 15.768C8.885 15.5493 8.811 15.3667 8.663 15.22C8.515 15.0733 8.332 15 8.114 15C7.896 15 7.71333 15.074 7.566 15.222C7.41867 15.37 7.34533 15.553 7.346 15.771C7.34667 15.989 7.42067 16.1713 7.568 16.318C7.71533 16.4647 7.89833 16.539 8.117 16.539ZM8.117 12.769C8.335 12.769 8.51767 12.6953 8.665 12.548C8.81167 12.4 8.885 12.2167 8.885 11.998C8.885 11.7793 8.811 11.597 8.663 11.451C8.515 11.305 8.332 11.2317 8.114 11.231C7.896 11.2303 7.71333 11.304 7.566 11.452C7.41867 11.6 7.34533 11.7833 7.346 12.002C7.34667 12.2207 7.42067 12.403 7.568 12.549C7.71533 12.695 7.89833 12.7683 8.117 12.769ZM8.117 9C8.335 9 8.51767 8.92633 8.665 8.779C8.81167 8.631 8.885 8.44767 8.885 8.229C8.885 8.01033 8.811 7.828 8.663 7.682C8.515 7.536 8.332 7.46267 8.114 7.462C7.896 7.46133 7.71333 7.535 7.566 7.683C7.41933 7.831 7.346 8.014 7.346 8.232C7.346 8.45 7.42 8.63267 7.568 8.78C7.716 8.92733 7.899 9.00067 8.117 9ZM11.692 16.27H16.077C16.219 16.27 16.3377 16.2217 16.433 16.125C16.5283 16.0283 16.5763 15.9097 16.577 15.769C16.5777 15.6283 16.5297 15.5097 16.433 15.413C16.3363 15.3163 16.2177 15.2683 16.077 15.269H11.692C11.5507 15.269 11.432 15.317 11.336 15.413C11.24 15.509 11.192 15.628 11.192 15.77C11.192 15.912 11.24 16.0307 11.336 16.126C11.432 16.2213 11.5507 16.269 11.692 16.269M11.692 12.5H16.077C16.219 12.5 16.3377 12.452 16.433 12.356C16.5283 12.26 16.5763 12.141 16.577 11.999C16.5777 11.857 16.5297 11.7383 16.433 11.643C16.3363 11.5477 16.2177 11.5 16.077 11.5H11.692C11.5507 11.5 11.432 11.548 11.336 11.644C11.24 11.74 11.192 11.859 11.192 12.001C11.192 12.143 11.24 12.2617 11.336 12.357C11.432 12.4523 11.5507 12.5 11.692 12.5ZM11.692 8.73H16.077C16.219 8.73 16.3377 8.68233 16.433 8.587C16.529 8.491 16.577 8.372 16.577 8.23C16.577 8.088 16.529 7.96933 16.433 7.874C16.337 7.77867 16.2183 7.731 16.077 7.731H11.692C11.5507 7.731 11.432 7.779 11.336 7.875C11.24 7.971 11.192 8.09 11.192 8.232C11.192 8.374 11.24 8.49267 11.336 8.588C11.432 8.68333 11.5507 8.731 11.692 8.731M5.616 20C5.15533 20 4.771 19.846 4.463 19.538C4.155 19.23 4.00067 18.8453 4 18.384V5.616C4 5.15533 4.15433 4.771 4.463 4.463C4.77167 4.155 5.156 4.00067 5.616 4H18.385C18.845 4 19.2293 4.15433 19.538 4.463C19.8467 4.77167 20.0007 5.156 20 5.616V18.385C20 18.845 19.846 19.2293 19.538 19.538C19.23 19.8467 18.8453 20.0007 18.384 20H5.616Z" fill="white"/>
</svg>
