<svg width="26" height="26" viewBox="0 0 26 26" fill="none" xmlns="http://www.w3.org/2000/svg">
<path fill-rule="evenodd" clip-rule="evenodd" d="M2.4375 6.5C2.4375 6.28451 2.5231 6.07785 2.67548 5.92548C2.82785 5.7731 3.03451 5.6875 3.25 5.6875H22.75C22.9655 5.6875 23.1722 5.7731 23.3245 5.92548C23.4769 6.07785 23.5625 6.28451 23.5625 6.5C23.5625 6.71549 23.4769 6.92215 23.3245 7.07452C23.1722 7.2269 22.9655 7.3125 22.75 7.3125H3.25C3.03451 7.3125 2.82785 7.2269 2.67548 7.07452C2.5231 6.92215 2.4375 6.71549 2.4375 6.5ZM2.4375 10.8333C2.4375 10.6178 2.5231 10.4112 2.67548 10.2588C2.82785 10.1064 3.03451 10.0208 3.25 10.0208H22.75C22.9655 10.0208 23.1722 10.1064 23.3245 10.2588C23.4769 10.4112 23.5625 10.6178 23.5625 10.8333C23.5625 11.0488 23.4769 11.2555 23.3245 11.4079C23.1722 11.5602 22.9655 11.6458 22.75 11.6458H3.25C3.03451 11.6458 2.82785 11.5602 2.67548 11.4079C2.5231 11.2555 2.4375 11.0488 2.4375 10.8333ZM2.4375 15.1667C2.4375 14.9512 2.5231 14.7445 2.67548 14.5921C2.82785 14.4398 3.03451 14.3542 3.25 14.3542H11.9167C12.1322 14.3542 12.3388 14.4398 12.4912 14.5921C12.6436 14.7445 12.7292 14.9512 12.7292 15.1667C12.7292 15.3822 12.6436 15.5888 12.4912 15.7412C12.3388 15.8936 12.1322 15.9792 11.9167 15.9792H3.25C3.03451 15.9792 2.82785 15.8936 2.67548 15.7412C2.5231 15.5888 2.4375 15.3822 2.4375 15.1667ZM2.4375 19.5C2.4375 19.2845 2.5231 19.0778 2.67548 18.9255C2.82785 18.7731 3.03451 18.6875 3.25 18.6875H11.9167C12.1322 18.6875 12.3388 18.7731 12.4912 18.9255C12.6436 19.0778 12.7292 19.2845 12.7292 19.5C12.7292 19.7155 12.6436 19.9222 12.4912 20.0745C12.3388 20.2269 12.1322 20.3125 11.9167 20.3125H3.25C3.03451 20.3125 2.82785 20.2269 2.67548 20.0745C2.5231 19.9222 2.4375 19.7155 2.4375 19.5Z" fill="white"/>
<path d="M20.4479 15.2945C22.2397 16.3291 23.1345 16.8469 23.2667 17.5923C23.2996 17.7789 23.2996 17.97 23.2667 18.1567C23.1356 18.9042 22.2397 19.4209 20.4479 20.4555C18.656 21.4901 17.7612 22.0068 17.0484 21.7479C16.8703 21.6832 16.705 21.5879 16.5598 21.4663C15.9791 20.9788 15.9791 19.9442 15.9791 17.875C15.9791 15.8058 15.9791 14.7723 16.5598 14.2848C16.705 14.1624 16.8707 14.0682 17.0484 14.0032C17.7601 13.7432 18.656 14.261 20.4479 15.2945Z" fill="white"/>
</svg>
