<svg width="32" height="32" viewBox="0 0 32 32" fill="none" xmlns="http://www.w3.org/2000/svg">
<path d="M28 25.6627C28 27.54 25.896 28.6493 24.3467 27.588L10.3493 17.996C10.0378 17.7825 9.78279 17.4965 9.60615 17.1627C9.42951 16.8289 9.33655 16.4572 9.33524 16.0795C9.33392 15.7018 9.42431 15.3295 9.59862 14.9944C9.77294 14.6594 10.026 14.3717 10.336 14.156L24.3347 4.42C25.88 3.344 28 4.45333 28 6.336L28 25.6627ZM4 27C4 27.2652 4.10536 27.5196 4.29289 27.7071C4.48043 27.8946 4.73478 28 5 28C5.26521 28 5.51957 27.8946 5.70711 27.7071C5.89464 27.5196 6 27.2652 6 27L6 5C6 4.73478 5.89465 4.48043 5.70711 4.29289C5.51957 4.10535 5.26522 4 5 4C4.73479 4 4.48043 4.10535 4.29289 4.29289C4.10536 4.48043 4 4.73478 4 5L4 27Z" fill="white"/>
</svg>
