<svg width="136" height="137" viewBox="0 0 136 137" fill="none" xmlns="http://www.w3.org/2000/svg">
<path d="M76.3332 12.5L86.4999 22.2501L53.3748 22.1667C38.4998 22.1667 26.2915 34.3751 26.2915 49.3334C26.2915 56.7918 29.3332 63.5833 34.2499 68.5" stroke="white" stroke-width="7" stroke-linecap="round" stroke-linejoin="round"/>
<path d="M59.6667 87.5L49.5 77.7499L82.625 77.8333C97.5 77.8333 109.708 65.6249 109.708 50.6666C109.708 43.2082 106.667 36.4167 101.75 31.5" stroke="white" stroke-width="7" stroke-linecap="round" stroke-linejoin="round"/>
<path d="M69.0417 61.1249V38.8751L62.7917 45.8333" stroke="white" stroke-width="7" stroke-linecap="round" stroke-linejoin="round"/>
<path d="M2.09797 131V113.72H9.23797C9.40597 113.72 9.62197 113.728 9.88597 113.744C10.15 113.752 10.394 113.776 10.618 113.816C11.618 113.968 12.442 114.3 13.09 114.812C13.746 115.324 14.23 115.972 14.542 116.756C14.862 117.532 15.022 118.396 15.022 119.348C15.022 120.756 14.666 121.968 13.954 122.984C13.242 123.992 12.15 124.616 10.678 124.856L9.44197 124.964H4.98997V131H2.09797ZM12.022 131L8.61397 123.968L11.554 123.32L15.298 131H12.022ZM4.98997 122.264H9.11797C9.27797 122.264 9.45797 122.256 9.65797 122.24C9.85797 122.224 10.042 122.192 10.21 122.144C10.69 122.024 11.066 121.812 11.338 121.508C11.618 121.204 11.814 120.86 11.926 120.476C12.046 120.092 12.106 119.716 12.106 119.348C12.106 118.98 12.046 118.604 11.926 118.22C11.814 117.828 11.618 117.48 11.338 117.176C11.066 116.872 10.69 116.66 10.21 116.54C10.042 116.492 9.85797 116.464 9.65797 116.456C9.45797 116.44 9.27797 116.432 9.11797 116.432H4.98997V122.264ZM23.8337 131.36C22.5217 131.36 21.3697 131.076 20.3777 130.508C19.3857 129.94 18.6097 129.152 18.0497 128.144C17.4977 127.136 17.2217 125.976 17.2217 124.664C17.2217 123.248 17.4937 122.02 18.0377 120.98C18.5817 119.932 19.3377 119.12 20.3057 118.544C21.2737 117.968 22.3937 117.68 23.6657 117.68C25.0097 117.68 26.1497 117.996 27.0857 118.628C28.0297 119.252 28.7297 120.136 29.1857 121.28C29.6417 122.424 29.8137 123.772 29.7017 125.324H26.8337V124.268C26.8257 122.86 26.5777 121.832 26.0897 121.184C25.6017 120.536 24.8337 120.212 23.7857 120.212C22.6017 120.212 21.7217 120.58 21.1457 121.316C20.5697 122.044 20.2817 123.112 20.2817 124.52C20.2817 125.832 20.5697 126.848 21.1457 127.568C21.7217 128.288 22.5617 128.648 23.6657 128.648C24.3777 128.648 24.9897 128.492 25.5017 128.18C26.0217 127.86 26.4217 127.4 26.7017 126.8L29.5577 127.664C29.0617 128.832 28.2937 129.74 27.2537 130.388C26.2217 131.036 25.0817 131.36 23.8337 131.36ZM19.3697 125.324V123.14H28.2857V125.324H19.3697ZM38.2557 131.36C36.9917 131.36 35.9317 131.06 35.0757 130.46C34.2197 129.86 33.5757 129.044 33.1437 128.012C32.7117 126.972 32.4957 125.808 32.4957 124.52C32.4957 123.216 32.7117 122.048 33.1437 121.016C33.5757 119.984 34.2077 119.172 35.0397 118.58C35.8797 117.98 36.9157 117.68 38.1477 117.68C39.3717 117.68 40.4317 117.98 41.3277 118.58C42.2317 119.172 42.9317 119.984 43.4277 121.016C43.9237 122.04 44.1717 123.208 44.1717 124.52C44.1717 125.816 43.9277 126.98 43.4397 128.012C42.9517 129.044 42.2637 129.86 41.3757 130.46C40.4877 131.06 39.4477 131.36 38.2557 131.36ZM32.0037 136.76V118.04H34.5597V127.136H34.9197V136.76H32.0037ZM37.8117 128.768C38.5637 128.768 39.1837 128.58 39.6717 128.204C40.1597 127.828 40.5197 127.32 40.7517 126.68C40.9917 126.032 41.1117 125.312 41.1117 124.52C41.1117 123.736 40.9917 123.024 40.7517 122.384C40.5117 121.736 40.1397 121.224 39.6357 120.848C39.1317 120.464 38.4917 120.272 37.7157 120.272C36.9797 120.272 36.3797 120.452 35.9157 120.812C35.4517 121.164 35.1077 121.66 34.8837 122.3C34.6677 122.932 34.5597 123.672 34.5597 124.52C34.5597 125.36 34.6677 126.1 34.8837 126.74C35.1077 127.38 35.4557 127.88 35.9277 128.24C36.4077 128.592 37.0357 128.768 37.8117 128.768ZM52.7087 131.36C51.3967 131.36 50.2447 131.076 49.2527 130.508C48.2607 129.94 47.4847 129.152 46.9247 128.144C46.3727 127.136 46.0967 125.976 46.0967 124.664C46.0967 123.248 46.3687 122.02 46.9127 120.98C47.4567 119.932 48.2127 119.12 49.1807 118.544C50.1487 117.968 51.2687 117.68 52.5407 117.68C53.8847 117.68 55.0247 117.996 55.9607 118.628C56.9047 119.252 57.6047 120.136 58.0607 121.28C58.5167 122.424 58.6887 123.772 58.5767 125.324H55.7087V124.268C55.7007 122.86 55.4527 121.832 54.9647 121.184C54.4767 120.536 53.7087 120.212 52.6607 120.212C51.4767 120.212 50.5967 120.58 50.0207 121.316C49.4447 122.044 49.1567 123.112 49.1567 124.52C49.1567 125.832 49.4447 126.848 50.0207 127.568C50.5967 128.288 51.4367 128.648 52.5407 128.648C53.2527 128.648 53.8647 128.492 54.3767 128.18C54.8967 127.86 55.2967 127.4 55.5767 126.8L58.4327 127.664C57.9367 128.832 57.1687 129.74 56.1287 130.388C55.0967 131.036 53.9567 131.36 52.7087 131.36ZM48.2447 125.324V123.14H57.1607V125.324H48.2447ZM64.6438 131.36C63.7078 131.36 62.9158 131.184 62.2678 130.832C61.6198 130.472 61.1278 129.996 60.7918 129.404C60.4638 128.812 60.2998 128.16 60.2998 127.448C60.2998 126.824 60.4038 126.264 60.6118 125.768C60.8198 125.264 61.1398 124.832 61.5718 124.472C62.0038 124.104 62.5638 123.804 63.2518 123.572C63.7718 123.404 64.3798 123.252 65.0758 123.116C65.7798 122.98 66.5398 122.856 67.3558 122.744C68.1798 122.624 69.0398 122.496 69.9358 122.36L68.9038 122.948C68.9118 122.052 68.7118 121.392 68.3038 120.968C67.8958 120.544 67.2078 120.332 66.2398 120.332C65.6558 120.332 65.0918 120.468 64.5478 120.74C64.0038 121.012 63.6238 121.48 63.4078 122.144L60.7678 121.316C61.0878 120.22 61.6958 119.34 62.5918 118.676C63.4958 118.012 64.7118 117.68 66.2398 117.68C67.3918 117.68 68.4038 117.868 69.2758 118.244C70.1558 118.62 70.8078 119.236 71.2318 120.092C71.4638 120.548 71.6038 121.016 71.6518 121.496C71.6998 121.968 71.7238 122.484 71.7238 123.044V131H69.1918V128.192L69.6118 128.648C69.0278 129.584 68.3438 130.272 67.5598 130.712C66.7838 131.144 65.8118 131.36 64.6438 131.36ZM65.2198 129.056C65.8758 129.056 66.4358 128.94 66.8998 128.708C67.3638 128.476 67.7318 128.192 68.0038 127.856C68.2838 127.52 68.4718 127.204 68.5678 126.908C68.7198 126.54 68.8038 126.12 68.8198 125.648C68.8438 125.168 68.8558 124.78 68.8558 124.484L69.7438 124.748C68.8718 124.884 68.1238 125.004 67.4998 125.108C66.8758 125.212 66.3398 125.312 65.8918 125.408C65.4438 125.496 65.0478 125.596 64.7038 125.708C64.3678 125.828 64.0838 125.968 63.8518 126.128C63.6198 126.288 63.4398 126.472 63.3118 126.68C63.1918 126.888 63.1318 127.132 63.1318 127.412C63.1318 127.732 63.2118 128.016 63.3718 128.264C63.5318 128.504 63.7638 128.696 64.0678 128.84C64.3798 128.984 64.7638 129.056 65.2198 129.056ZM82.444 131C81.588 131.16 80.748 131.228 79.924 131.204C79.108 131.188 78.376 131.04 77.728 130.76C77.08 130.472 76.588 130.02 76.252 129.404C75.956 128.844 75.8 128.272 75.784 127.688C75.768 127.104 75.76 126.444 75.76 125.708V114.44H78.64V125.54C78.64 126.06 78.644 126.516 78.652 126.908C78.668 127.3 78.752 127.62 78.904 127.868C79.192 128.348 79.652 128.616 80.284 128.672C80.916 128.728 81.636 128.696 82.444 128.576V131ZM73.408 120.308V118.04H82.444V120.308H73.408ZM97.3435 131.36C95.6155 131.36 94.1355 130.984 92.9035 130.232C91.6715 129.472 90.7235 128.416 90.0595 127.064C89.4035 125.712 89.0755 124.144 89.0755 122.36C89.0755 120.576 89.4035 119.008 90.0595 117.656C90.7235 116.304 91.6715 115.252 92.9035 114.5C94.1355 113.74 95.6155 113.36 97.3435 113.36C99.0715 113.36 100.551 113.74 101.783 114.5C103.023 115.252 103.971 116.304 104.627 117.656C105.291 119.008 105.623 120.576 105.623 122.36C105.623 124.144 105.291 125.712 104.627 127.064C103.971 128.416 103.023 129.472 101.783 130.232C100.551 130.984 99.0715 131.36 97.3435 131.36ZM97.3435 128.636C98.5035 128.644 99.4675 128.388 100.235 127.868C101.011 127.348 101.591 126.616 101.975 125.672C102.367 124.728 102.563 123.624 102.563 122.36C102.563 121.096 102.367 120 101.975 119.072C101.591 118.136 101.011 117.408 100.235 116.888C99.4675 116.368 98.5035 116.1 97.3435 116.084C96.1835 116.076 95.2195 116.332 94.4515 116.852C93.6835 117.372 93.1035 118.104 92.7115 119.048C92.3275 119.992 92.1355 121.096 92.1355 122.36C92.1355 123.624 92.3275 124.724 92.7115 125.66C93.0955 126.588 93.6715 127.312 94.4395 127.832C95.2155 128.352 96.1835 128.62 97.3435 128.636ZM116.976 131V124.76C116.976 124.352 116.948 123.9 116.892 123.404C116.836 122.908 116.704 122.432 116.496 121.976C116.296 121.512 115.992 121.132 115.584 120.836C115.184 120.54 114.64 120.392 113.952 120.392C113.584 120.392 113.22 120.452 112.86 120.572C112.5 120.692 112.172 120.9 111.876 121.196C111.588 121.484 111.356 121.884 111.18 122.396C111.004 122.9 110.916 123.548 110.916 124.34L109.2 123.608C109.2 122.504 109.412 121.504 109.836 120.608C110.268 119.712 110.9 119 111.732 118.472C112.564 117.936 113.588 117.668 114.804 117.668C115.764 117.668 116.556 117.828 117.18 118.148C117.804 118.468 118.3 118.876 118.668 119.372C119.036 119.868 119.308 120.396 119.484 120.956C119.66 121.516 119.772 122.048 119.82 122.552C119.876 123.048 119.904 123.452 119.904 123.764V131H116.976ZM107.988 131V118.04H110.568V122.06H110.916V131H107.988ZM128.717 131.36C127.405 131.36 126.253 131.076 125.261 130.508C124.269 129.94 123.493 129.152 122.933 128.144C122.381 127.136 122.105 125.976 122.105 124.664C122.105 123.248 122.377 122.02 122.921 120.98C123.465 119.932 124.221 119.12 125.189 118.544C126.157 117.968 127.277 117.68 128.549 117.68C129.893 117.68 131.033 117.996 131.969 118.628C132.913 119.252 133.613 120.136 134.069 121.28C134.525 122.424 134.697 123.772 134.585 125.324H131.717V124.268C131.709 122.86 131.461 121.832 130.973 121.184C130.485 120.536 129.717 120.212 128.669 120.212C127.485 120.212 126.605 120.58 126.029 121.316C125.453 122.044 125.165 123.112 125.165 124.52C125.165 125.832 125.453 126.848 126.029 127.568C126.605 128.288 127.445 128.648 128.549 128.648C129.261 128.648 129.873 128.492 130.385 128.18C130.905 127.86 131.305 127.4 131.585 126.8L134.441 127.664C133.945 128.832 133.177 129.74 132.137 130.388C131.105 131.036 129.965 131.36 128.717 131.36ZM124.253 125.324V123.14H133.169V125.324H124.253Z" fill="white"/>
</svg>
