<svg width="14" height="28" viewBox="0 0 14 28" fill="none" xmlns="http://www.w3.org/2000/svg">
<g clip-path="url(#clip0_10009_2267)">
<path d="M0.00259792 13.9869C0.00206478 13.7147 0.0969534 13.451 0.270792 13.2415L6.10111 6.25373C6.29904 6.0159 6.58345 5.86633 6.89179 5.83794C7.20013 5.80954 7.50713 5.90465 7.74526 6.10233C7.98339 6.30001 8.13314 6.58408 8.16157 6.89204C8.19 7.2 8.09478 7.50662 7.89685 7.74446L2.67288 13.9869L7.71028 20.2293C7.80714 20.3484 7.87947 20.4855 7.92312 20.6326C7.96677 20.7797 7.98087 20.9341 7.96462 21.0867C7.94836 21.2393 7.90207 21.3871 7.82841 21.5218C7.75474 21.6565 7.65516 21.7753 7.53537 21.8714C7.41548 21.9781 7.27482 22.0588 7.12221 22.1087C6.9696 22.1585 6.80834 22.1763 6.64851 22.161C6.48869 22.1457 6.33375 22.0976 6.19341 22.0197C6.05306 21.9418 5.93034 21.8358 5.83292 21.7084L0.200829 14.7206C0.0544693 14.505 -0.0153254 14.2467 0.00259792 13.9869Z" fill="white"/>
</g>
<defs>
<clipPath id="clip0_10009_2267">
<rect width="14" height="28" fill="white"/>
</clipPath>
</defs>
</svg>
