<svg width="24" height="24" viewBox="0 0 24 24" fill="none" xmlns="http://www.w3.org/2000/svg">
<path d="M17.25 3H7.75C5.128 3 3 5.11956 3 7.73337V13.4172V14.3677C3 16.9815 5.128 19.1011 7.75 19.1011H9.175C9.4315 19.1011 9.7735 19.2721 9.935 19.4812L11.36 21.3727C11.987 22.2091 13.013 22.2091 13.64 21.3727L15.065 19.4812C15.2455 19.2436 15.5305 19.1011 15.825 19.1011H17.25C19.872 19.1011 22 16.9815 22 14.3677V7.73337C22 5.11956 19.872 3 17.25 3ZM13.45 14.1681H7.75C7.3605 14.1681 7.0375 13.8449 7.0375 13.4552C7.0375 13.0655 7.3605 12.7424 7.75 12.7424H13.45C13.8395 12.7424 14.1625 13.0655 14.1625 13.4552C14.1625 13.8449 13.8395 14.1681 13.45 14.1681ZM17.25 9.41571H7.75C7.3605 9.41571 7.0375 9.09255 7.0375 8.70285C7.0375 8.31316 7.3605 7.99 7.75 7.99H17.25C17.6395 7.99 17.9625 8.31316 17.9625 8.70285C17.9625 9.09255 17.6395 9.41571 17.25 9.41571Z" fill="white"/>
</svg>
