<svg width="100" height="136" viewBox="0 0 100 136" fill="none" xmlns="http://www.w3.org/2000/svg">
<path d="M12.5 74.9165L23.1249 74.9582C26.9166 74.9582 30.4583 73.0832 32.5417 69.9582L59.1667 30.0417C61.2501 26.9167 64.7916 25 68.5833 25.0416L87.5417 25.125" stroke="white" stroke-width="7" stroke-linecap="round" stroke-linejoin="round"/>
<path d="M79.1667 83.2499L87.5001 74.9166" stroke="white" stroke-width="7" stroke-linecap="round" stroke-linejoin="round"/>
<path d="M37.0417 35.9166L32.5417 29.6666C30.4167 26.7083 26.9999 24.9583 23.3749 25L12.5 25.0417" stroke="white" stroke-width="7" stroke-linecap="round" stroke-linejoin="round"/>
<path d="M54.0417 64.0834L59.1251 70.6251C61.2501 73.3751 64.5834 75 68.0834 75L87.5418 74.9166" stroke="white" stroke-width="7" stroke-linecap="round" stroke-linejoin="round"/>
<path d="M87.5001 25.0834L79.1667 16.7501" stroke="white" stroke-width="7" stroke-linecap="round" stroke-linejoin="round"/>
<path d="M15.6307 131.36C14.3667 131.36 13.2267 131.14 12.2107 130.7C11.2027 130.26 10.3707 129.632 9.71469 128.816C9.06669 127.992 8.65469 127.016 8.47869 125.888L11.4787 125.432C11.7347 126.456 12.2587 127.248 13.0507 127.808C13.8507 128.368 14.7707 128.648 15.8107 128.648C16.4267 128.648 17.0067 128.552 17.5507 128.36C18.0947 128.168 18.5347 127.888 18.8707 127.52C19.2147 127.152 19.3867 126.7 19.3867 126.164C19.3867 125.924 19.3467 125.704 19.2667 125.504C19.1867 125.296 19.0667 125.112 18.9067 124.952C18.7547 124.792 18.5547 124.648 18.3067 124.52C18.0667 124.384 17.7867 124.268 17.4667 124.172L13.0027 122.852C12.6187 122.74 12.2027 122.592 11.7547 122.408C11.3147 122.216 10.8947 121.956 10.4947 121.628C10.1027 121.292 9.77869 120.868 9.52269 120.356C9.27469 119.836 9.15069 119.196 9.15069 118.436C9.15069 117.324 9.43069 116.392 9.99069 115.64C10.5587 114.88 11.3187 114.312 12.2707 113.936C13.2307 113.56 14.2947 113.376 15.4627 113.384C16.6467 113.392 17.7027 113.596 18.6307 113.996C19.5587 114.388 20.3347 114.96 20.9587 115.712C21.5827 116.464 22.0227 117.372 22.2787 118.436L19.1707 118.976C19.0427 118.368 18.7947 117.852 18.4267 117.428C18.0667 116.996 17.6227 116.668 17.0947 116.444C16.5747 116.22 16.0187 116.1 15.4267 116.084C14.8507 116.076 14.3147 116.164 13.8187 116.348C13.3307 116.524 12.9347 116.78 12.6307 117.116C12.3347 117.452 12.1867 117.844 12.1867 118.292C12.1867 118.716 12.3147 119.064 12.5707 119.336C12.8267 119.6 13.1427 119.812 13.5187 119.972C13.9027 120.124 14.2907 120.252 14.6827 120.356L17.7787 121.22C18.2027 121.332 18.6787 121.484 19.2067 121.676C19.7347 121.868 20.2427 122.136 20.7307 122.48C21.2187 122.824 21.6187 123.276 21.9307 123.836C22.2507 124.396 22.4107 125.108 22.4107 125.972C22.4107 126.868 22.2227 127.656 21.8467 128.336C21.4787 129.008 20.9787 129.568 20.3467 130.016C19.7147 130.464 18.9907 130.8 18.1747 131.024C17.3667 131.248 16.5187 131.36 15.6307 131.36ZM33.9721 131V124.76C33.9721 124.352 33.9441 123.9 33.8881 123.404C33.8321 122.908 33.7001 122.432 33.4921 121.976C33.2921 121.512 32.9881 121.132 32.5801 120.836C32.1801 120.54 31.6361 120.392 30.9481 120.392C30.5801 120.392 30.2161 120.452 29.8561 120.572C29.4961 120.692 29.1681 120.9 28.8721 121.196C28.5841 121.484 28.3521 121.884 28.1761 122.396C28.0001 122.9 27.9121 123.548 27.9121 124.34L26.1961 123.608C26.1961 122.504 26.4081 121.504 26.8321 120.608C27.2641 119.712 27.8961 119 28.7281 118.472C29.5601 117.936 30.5841 117.668 31.8001 117.668C32.7601 117.668 33.5521 117.828 34.1761 118.148C34.8001 118.468 35.2961 118.876 35.6641 119.372C36.0321 119.868 36.3041 120.396 36.4801 120.956C36.6561 121.516 36.7681 122.048 36.8161 122.552C36.8721 123.048 36.9001 123.452 36.9001 123.764V131H33.9721ZM24.9841 131V113.72H27.5641V122.816H27.9121V131H24.9841ZM44.8916 131.372C43.9316 131.372 43.1396 131.212 42.5156 130.892C41.8916 130.572 41.3956 130.164 41.0276 129.668C40.6596 129.172 40.3876 128.644 40.2116 128.084C40.0356 127.524 39.9196 126.996 39.8636 126.5C39.8156 125.996 39.7916 125.588 39.7916 125.276V118.04H42.7196V124.28C42.7196 124.68 42.7476 125.132 42.8036 125.636C42.8596 126.132 42.9876 126.612 43.1876 127.076C43.3956 127.532 43.6996 127.908 44.0996 128.204C44.5076 128.5 45.0556 128.648 45.7436 128.648C46.1116 128.648 46.4756 128.588 46.8356 128.468C47.1956 128.348 47.5196 128.144 47.8076 127.856C48.1036 127.56 48.3396 127.156 48.5156 126.644C48.6916 126.132 48.7796 125.484 48.7796 124.7L50.4956 125.432C50.4956 126.536 50.2796 127.536 49.8476 128.432C49.4236 129.328 48.7956 130.044 47.9636 130.58C47.1316 131.108 46.1076 131.372 44.8916 131.372ZM49.1276 131V126.98H48.7796V118.04H51.6836V131H49.1276ZM70.091 120.308V118.04H73.331V120.308H70.091ZM64.259 131V117.836C64.259 117.508 64.271 117.148 64.295 116.756C64.319 116.356 64.387 115.96 64.499 115.568C64.611 115.176 64.815 114.82 65.111 114.5C65.479 114.092 65.875 113.812 66.299 113.66C66.731 113.5 67.155 113.412 67.571 113.396C67.987 113.372 68.351 113.36 68.663 113.36H70.283V115.712H68.783C68.231 115.712 67.819 115.852 67.547 116.132C67.283 116.404 67.151 116.764 67.151 117.212V131H64.259ZM62.171 120.308V118.04H70.283V120.308H62.171ZM73.187 131V113.36H76.079V131H73.187ZM56.183 131V117.836C56.183 117.508 56.195 117.148 56.219 116.756C56.243 116.356 56.311 115.96 56.423 115.568C56.535 115.176 56.739 114.82 57.035 114.5C57.403 114.092 57.799 113.812 58.223 113.66C58.655 113.5 59.079 113.412 59.495 113.396C59.911 113.372 60.275 113.36 60.587 113.36H62.207V115.712H60.707C60.155 115.712 59.743 115.852 59.471 116.132C59.207 116.404 59.075 116.764 59.075 117.212V131H56.183ZM54.095 120.308V118.04H62.207V120.308H54.095ZM85.5798 131.36C84.2678 131.36 83.1158 131.076 82.1238 130.508C81.1318 129.94 80.3558 129.152 79.7958 128.144C79.2438 127.136 78.9678 125.976 78.9678 124.664C78.9678 123.248 79.2398 122.02 79.7838 120.98C80.3278 119.932 81.0838 119.12 82.0518 118.544C83.0198 117.968 84.1398 117.68 85.4118 117.68C86.7558 117.68 87.8958 117.996 88.8318 118.628C89.7758 119.252 90.4758 120.136 90.9318 121.28C91.3878 122.424 91.5598 123.772 91.4478 125.324H88.5798V124.268C88.5718 122.86 88.3238 121.832 87.8358 121.184C87.3478 120.536 86.5798 120.212 85.5318 120.212C84.3478 120.212 83.4678 120.58 82.8918 121.316C82.3158 122.044 82.0278 123.112 82.0278 124.52C82.0278 125.832 82.3158 126.848 82.8918 127.568C83.4678 128.288 84.3078 128.648 85.4118 128.648C86.1238 128.648 86.7358 128.492 87.2478 128.18C87.7678 127.86 88.1678 127.4 88.4478 126.8L91.3038 127.664C90.8078 128.832 90.0398 129.74 88.9998 130.388C87.9678 131.036 86.8278 131.36 85.5798 131.36ZM81.1158 125.324V123.14H90.0318V125.324H81.1158Z" fill="white"/>
</svg>
