<svg width="24" height="24" viewBox="0 0 24 24" fill="none" xmlns="http://www.w3.org/2000/svg">
<path d="M10.9704 19.5284C11.6042 19.149 12.3954 19.1497 13.0285 19.5303L16.8499 21.8277C17.738 22.3621 18.8249 21.5721 18.5911 20.5731L17.5824 16.2706C17.4123 15.545 17.6597 14.7851 18.2244 14.2987L21.5945 11.3959C22.3775 10.7222 21.9568 9.44435 20.9284 9.36303L16.4834 8.98796C15.7454 8.92569 15.1022 8.46067 14.8118 7.77937L13.0751 3.70571C12.6778 2.76476 11.3222 2.76476 10.9249 3.70571L9.18867 7.76915C8.8979 8.44968 8.25511 8.91403 7.51768 8.97625L3.07159 9.35141C2.04319 9.43273 1.62248 10.7106 2.40547 11.3843L5.77562 14.2871C6.34029 14.7734 6.5877 15.5334 6.41759 16.259L5.40887 20.5615C5.17514 21.5605 6.26198 22.3505 7.15015 21.8161L10.9704 19.5284Z" fill="white"/>
</svg>
