<svg width="28" height="28" viewBox="0 0 28 28" fill="none" xmlns="http://www.w3.org/2000/svg">
<path d="M4.66671 23.3333C4.02504 23.3333 3.47593 23.105 3.01937 22.6485C2.56282 22.1919 2.33415 21.6424 2.33337 21V6.99999C2.33337 6.35832 2.56204 5.80921 3.01937 5.35266C3.47671 4.8961 4.02582 4.66743 4.66671 4.66666H10.7042C11.0153 4.66666 11.312 4.72499 11.5944 4.84166C11.8767 4.95832 12.1244 5.1236 12.3375 5.33749L14 6.99999H23.3334C23.975 6.99999 24.5245 7.22866 24.9819 7.68599C25.4392 8.14332 25.6675 8.69243 25.6667 9.33332V21C25.6667 21.6417 25.4384 22.1912 24.9819 22.6485C24.5253 23.1058 23.9758 23.3341 23.3334 23.3333H4.66671Z" fill="white"/>
</svg>
