<svg width="32" height="32" viewBox="0 0 32 32" fill="none" xmlns="http://www.w3.org/2000/svg">
<path d="M21.4545 26.6667C20.9673 26.6667 20.5424 26.4895 20.18 26.1351C19.8176 25.7807 19.6364 25.3653 19.6364 24.8889V7.11111C19.6364 6.63466 19.8176 6.21925 20.18 5.86488C20.5424 5.51051 20.9673 5.33333 21.4545 5.33333H24.1818C24.6691 5.33333 25.0939 5.51051 25.4564 5.86488C25.8188 6.21925 26 6.63466 26 7.11111V24.8889C26 25.3653 25.8188 25.7807 25.4564 26.1351C25.0939 26.4895 24.6691 26.6667 24.1818 26.6667H21.4545ZM7.81818 26.6667C7.33091 26.6667 6.90606 26.4895 6.54364 26.1351C6.18121 25.7807 6 25.3653 6 24.8889V7.11111C6 6.63466 6.18121 6.21925 6.54364 5.86488C6.90606 5.51051 7.33091 5.33333 7.81818 5.33333H10.5455C11.0327 5.33333 11.4576 5.51051 11.82 5.86488C12.1824 6.21925 12.3636 6.63466 12.3636 7.11111V24.8889C12.3636 25.3653 12.1824 25.7807 11.82 26.1351C11.4576 26.4895 11.0327 26.6667 10.5455 26.6667H7.81818Z" fill="white"/>
</svg>
