<svg width="32" height="32" viewBox="0 0 32 32" fill="none" xmlns="http://www.w3.org/2000/svg">
<path d="M4 6.33733C4 4.46 6.104 3.35067 7.65333 4.412L21.6507 14.004C21.9622 14.2175 22.2172 14.5035 22.3939 14.8373C22.5705 15.1711 22.6635 15.5428 22.6648 15.9205C22.6661 16.2982 22.5757 16.6705 22.4014 17.0056C22.2271 17.3406 21.974 17.6283 21.664 17.844L7.66533 27.58C6.12 28.656 4 27.5467 4 25.664V6.33733ZM28 5C28 4.73478 27.8946 4.48043 27.7071 4.29289C27.5196 4.10536 27.2652 4 27 4C26.7348 4 26.4804 4.10536 26.2929 4.29289C26.1054 4.48043 26 4.73478 26 5V27C26 27.2652 26.1054 27.5196 26.2929 27.7071C26.4804 27.8946 26.7348 28 27 28C27.2652 28 27.5196 27.8946 27.7071 27.7071C27.8946 27.5196 28 27.2652 28 27V5Z" fill="white"/>
</svg>
