<svg width="28" height="28" viewBox="0 0 28 28" fill="none" xmlns="http://www.w3.org/2000/svg">
<path d="M10.5 19.8333C10.5 20.7616 10.1313 21.6518 9.47487 22.3082C8.8185 22.9646 7.92826 23.3333 7 23.3333C6.07174 23.3333 5.1815 22.9646 4.52513 22.3082C3.86875 21.6518 3.5 20.7616 3.5 19.8333C3.5 18.9051 3.86875 18.0148 4.52513 17.3584C5.1815 16.7021 6.07174 16.3333 7 16.3333C7.92826 16.3333 8.8185 16.7021 9.47487 17.3584C10.1313 18.0148 10.5 18.9051 10.5 19.8333ZM10.5 19.8333V4.66666H22.1667V12.8333M10.5 9.33332H22.1667M23.5667 23.5667L25.6667 25.6667M17.5 21C17.5 21.9282 17.8687 22.8185 18.5251 23.4749C19.1815 24.1312 20.0717 24.5 21 24.5C21.9283 24.5 22.8185 24.1312 23.4749 23.4749C24.1313 22.8185 24.5 21.9282 24.5 21C24.5 20.0717 24.1313 19.1815 23.4749 18.5251C22.8185 17.8687 21.9283 17.5 21 17.5C20.0717 17.5 19.1815 17.8687 18.5251 18.5251C17.8687 19.1815 17.5 20.0717 17.5 21Z" stroke="white" stroke-width="2" stroke-linecap="round" stroke-linejoin="round"/>
</svg>
